<svg xmlns="http://www.w3.org/2000/svg" width="96" height="96" aria-labelledby="title desc" role="img" viewBox="0 0 96 96"><title id="title">Typed bridge icon</title><desc id="desc">Three-dimensional typed preload bridge linking renderer and main process.</desc><defs><linearGradient id="br-bg" x1="0" x2="1" y1="0" y2="1"><stop offset="0" stop-color="#eef2ff"/><stop offset="1" stop-color="#c7d2fe"/></linearGradient><linearGradient id="br-blue" x1="0" x2="1" y1="0" y2="1"><stop offset="0" stop-color="#60a5fa"/><stop offset="1" stop-color="#1d4ed8"/></linearGradient><linearGradient id="br-teal" x1="0" x2="1" y1="0" y2="1"><stop offset="0" stop-color="#14b8a6"/><stop offset="1" stop-color="#0f766e"/></linearGradient><linearGradient id="br-hi" x1="0" x2="0" y1="0" y2="1"><stop offset="0" stop-color="#fff" stop-opacity=".5"/><stop offset=".5" stop-color="#fff" stop-opacity="0"/></linearGradient><filter id="br-shadow" width="140%" height="140%" x="-20%" y="-20%"><feDropShadow dx="0" dy="3" flood-color="#1e3a8a" flood-opacity=".3" stdDeviation="2.5"/></filter></defs><rect width="96" height="96" fill="url(#br-bg)" rx="20"/><ellipse cx="48" cy="84" fill="#1e3a8a" opacity=".15" rx="28" ry="2.5"/><g filter="url(#br-shadow)"><rect width="26" height="48" x="14" y="24" fill="url(#br-blue)" rx="6"/><rect width="26" height="48" x="14" y="24" fill="url(#br-hi)" rx="6"/><rect width="26" height="48" x="56" y="24" fill="url(#br-teal)" rx="6"/><rect width="26" height="48" x="56" y="24" fill="url(#br-hi)" rx="6"/></g><g fill="none" stroke="#334155" stroke-linecap="round" stroke-width="2.5"><path d="M40 38h16"/><path d="M40 58h16"/></g><g fill="none" stroke="#f59e0b" stroke-linecap="round" stroke-linejoin="round" stroke-width="3"><path d="m51 31 7 7-7 7"/><path d="m45 51-7 7 7 7"/></g><g fill="#fbbf24"><circle cx="48" cy="38" r="2"><animate attributeName="cx" dur="2.6s" repeatCount="indefinite" values="40;56;40"/><animate attributeName="opacity" dur="2.6s" repeatCount="indefinite" values="0;1;0"/></circle><circle cx="48" cy="58" r="2"><animate attributeName="cx" begin="1.3s" dur="2.6s" repeatCount="indefinite" values="56;40;56"/><animate attributeName="opacity" begin="1.3s" dur="2.6s" repeatCount="indefinite" values="0;1;0"/></circle></g></svg>